<svg xmlns="http://www.w3.org/2000/svg" width="58" height="58" viewBox="0 0 58 58">
  <g id="Group_490" data-name="Group 490" transform="translate(-212 -657)">
    <circle id="Ellipse_2" data-name="Ellipse 2" cx="29" cy="29" r="29" transform="translate(212 657)" fill="#fff"/>
    <path id="Path_4" data-name="Path 4" d="M334.059,399.164a.746.746,0,0,1,.22.188,1.532,1.532,0,0,1,.316.625l.455,2.576c.544,3.08.316,2.567,2.807,4.859l16.529,15.235c1.912,1.762-1.761,5.426-3.519,3.518l-15.235-16.528c-2.3-2.5-1.784-2.264-4.871-2.81l-1.712-.3-.086.175a7.759,7.759,0,0,0-.879,4.471,6.176,6.176,0,0,0,1.979,3.605c1.238,1.157,2.151,1.486,2.722,1.357a.677.677,0,0,0,.457-.346,1.176,1.176,0,0,0,.089-.774,2.179,2.179,0,0,0-1.659-1.575,3.737,3.737,0,0,0-1.518-.069c-.073.01-.146.021-.22.035a6.133,6.133,0,0,1-.753-1.516,6.69,6.69,0,0,1,.755-.147,5.374,5.374,0,0,1,2.2.122,3.783,3.783,0,0,1,2.811,2.843,2.821,2.821,0,0,1-.256,1.862,2.289,2.289,0,0,1-1.545,1.17c-1.047.235-2.5-.168-4.2-1.756a9.128,9.128,0,0,1-.952-1.032l0-.006a8.93,8.93,0,0,1-1.3-2.5l0-.008a7.354,7.354,0,0,1-.225-1.038,9.355,9.355,0,0,1,1.034-5.418l4.806-9.785a.82.82,0,1,1,1.474.721l-.645,1.313.935.935ZM326.221,413.7a3.643,3.643,0,0,0-.62,1.2,3.736,3.736,0,0,0-.109,1.58c.675,4.954,6.119,3.806,3.4,8.9a.821.821,0,1,0,1.448.772c3.517-6.581-2.631-5.586-3.217-9.89a2.122,2.122,0,0,1,.058-.9l.024-.076a6.283,6.283,0,0,1-.982-1.589Zm6.351-19.669a.822.822,0,1,0-1.474-.728l-6.211,12.5a.822.822,0,1,0,1.474.727l6.211-12.5Zm-1.75-2.118a.821.821,0,0,0-1.475-.721l-6.786,13.856a.82.82,0,0,0,1.474.721l6.787-13.856Zm-2.538-.478a.82.82,0,1,0-1.474-.721l-.4.808-2.012-2.012a.824.824,0,0,0-1.165,1.165l2.41,2.41-.454.925-2.645-2.645a.824.824,0,1,0-1.165,1.165l3.043,3.043-.454.924-3.278-3.278a.824.824,0,1,0-1.165,1.166l3.675,3.675-.454.925-3.911-3.911a.824.824,0,1,0-1.165,1.165l4.309,4.309-.711,1.447a.82.82,0,0,0,1.474.721l5.54-11.281Z" transform="translate(-95.017 278.819)" fill="#484848" fill-rule="evenodd"/>
  </g>
</svg>
