<svg id="Iconly_Bulk_Document" data-name="Iconly/Bulk/Document" xmlns="http://www.w3.org/2000/svg" width="136" height="136" viewBox="0 0 136 136">
  <g id="Document" transform="translate(17 11.333)">
    <path id="Path" d="M74.749,0H27.257C10.03,0,0,10.087,0,27.37V85.907c0,17.567,10.03,27.427,27.257,27.427H74.749c17.5,0,27.251-9.86,27.251-27.427V27.37C102,10.087,92.253,0,74.749,0" fill="#fff" opacity="0.4"/>
    <path id="Combined_Shape" data-name="Combined Shape" d="M.677,58.364a4.519,4.519,0,0,1,0-4.758,4.45,4.45,0,0,1,4.253-2.1H49.357a4.476,4.476,0,0,1,0,8.894H4.93a4.146,4.146,0,0,1-.554.037A4.439,4.439,0,0,1,.677,58.364ZM4.93,34.512a4.424,4.424,0,0,1,0-8.849H49.357a4.424,4.424,0,0,1,0,8.849Zm0-25.617a4.419,4.419,0,1,1,0-8.838V0H21.868a4.447,4.447,0,0,1,0,8.894Z" transform="translate(23.858 26.35)" fill="#fff"/>
  </g>
</svg>
