<svg xmlns="http://www.w3.org/2000/svg" width="58" height="58" viewBox="0 0 58 58">
  <g id="Group_491" data-name="Group 491" transform="translate(-212 -657)">
    <circle id="Ellipse_2" data-name="Ellipse 2" cx="29" cy="29" r="29" transform="translate(212 657)" fill="#fff"/>
    <g id="Group_492" data-name="Group 492" transform="translate(-18.044 272.429)">
      <path id="Path_5" data-name="Path 5" d="M263.524,419.646a7.932,7.932,0,0,1,.795.567,7.43,7.43,0,0,1,.888,10.765,8.114,8.114,0,0,1-10.731,1.216,8.122,8.122,0,0,1-10.338.146,7.429,7.429,0,0,1-.889-10.765,8.007,8.007,0,0,1,4.486-2.553,7.493,7.493,0,0,1,1.9-4.845,8.11,8.11,0,0,1,11.123-.918,7.465,7.465,0,0,1,2.764,5.191,7.354,7.354,0,0,1,0,1.2Zm-14.3-.774a8.02,8.02,0,0,1,5.152,1.785,7.5,7.5,0,0,1,2.663,4.435,6.516,6.516,0,0,0,3.5-2.044,5.961,5.961,0,0,0-.713-8.644,6.647,6.647,0,0,0-9.083.749,6.034,6.034,0,0,0-1.522,3.718Zm7.941,7.706a7.471,7.471,0,0,1-1.646,4.541A6.657,6.657,0,0,0,264.1,430a5.96,5.96,0,0,0-.714-8.644c-.054-.044-.109-.088-.165-.13a7.6,7.6,0,0,1-1.575,2.8,8.007,8.007,0,0,1-4.485,2.553ZM253.44,421.8a6.647,6.647,0,0,0-9.083.749,5.962,5.962,0,0,0,.714,8.644,6.646,6.646,0,0,0,9.082-.749,5.961,5.961,0,0,0-.713-8.644Z" transform="translate(-0.538 -3.04)" fill="#333"/>
      <path id="Path_6" data-name="Path 6" d="M278.864,424.98a7.464,7.464,0,0,0-2.765-5.191,7.921,7.921,0,0,0-.794-.568,7.434,7.434,0,0,0-2.767-6.386,8.109,8.109,0,0,0-11.122.918c-.056.064-.106.132-.161.2l.066.025c.165.059.328.119.489.19a1.944,1.944,0,0,1,.708.572l.006-.008a6.644,6.644,0,0,1,9.082-.749,5.962,5.962,0,0,1,.714,8.644,6.519,6.519,0,0,1-3.5,2.044,7.492,7.492,0,0,0-2.662-4.435,7.959,7.959,0,0,0-1.91-1.142,3.087,3.087,0,0,1-.289,1.351c-.016.038-.036.077-.053.115a6.4,6.4,0,0,1,1.319.82,5.963,5.963,0,0,1,.714,8.645,6.646,6.646,0,0,1-9.082.749,6.107,6.107,0,0,1-1.713-2.224c0,.026,0,.051-.007.078-.055.37-.621.4-.781.1h0c-.1.065-.2.131-.306.193a.4.4,0,0,1-.351.028,7.6,7.6,0,0,0,2.225,2.966,8.121,8.121,0,0,0,10.338-.145,8.114,8.114,0,0,0,10.731-1.216A7.468,7.468,0,0,0,278.864,424.98Zm-2.983,4.6a6.655,6.655,0,0,1-8.584,1.115,7.469,7.469,0,0,0,1.646-4.54,8.01,8.01,0,0,0,4.485-2.553A7.616,7.616,0,0,0,275,420.8c.056.043.111.086.165.13a5.963,5.963,0,0,1,.714,8.645Z" transform="translate(-2.333 -2.978)" fill="#333"/>
      <path id="Path_7" data-name="Path 7" d="M272.406,436.9c2.461-.115,7.3-2.9,7.637-6.569H237.651c.336,3.666,5.177,6.455,7.637,6.569Z" transform="translate(0 -5.782)" fill="#333" fill-rule="evenodd"/>
      <path id="Path_8" data-name="Path 8" d="M263.18,391.006a1,1,0,1,0-1.645,1.123c1.555,2.285.753,3.374-.019,4.42-1.175,1.595-2.3,3.127.045,6.243a1,1,0,0,0,1.591-1.2c-1.456-1.929-.756-2.877-.03-3.864,1.181-1.6,2.408-3.266.057-6.72Z" transform="translate(-3.277)" fill="#333"/>
      <path id="Path_9" data-name="Path 9" d="M256.724,394.72a1,1,0,1,0-1.645,1.123c1.24,1.822.6,2.688-.013,3.521-1.021,1.386-2,2.719.04,5.427a1,1,0,1,0,1.59-1.2c-1.149-1.521-.6-2.27-.024-3.047,1.023-1.388,2.087-2.83.051-5.821Z" transform="translate(-2.365 -0.54)" fill="#333"/>
      <path id="Path_10" data-name="Path 10" d="M268.405,398.418a1,1,0,0,0-1.645,1.122c1.24,1.823.6,2.688-.012,3.522-1.022,1.385-2,2.718.039,5.426a1,1,0,1,0,1.59-1.2c-1.149-1.522-.6-2.27-.023-3.047,1.023-1.388,2.086-2.831.05-5.821Z" transform="translate(-4.063 -1.078)" fill="#333"/>
    </g>
  </g>
</svg>
